<?xml version="1.0" standalone="no"?>
<!DOCTYPE svg PUBLIC "-//W3C//DTD SVG 20010904//EN"
 "http://www.w3.org/TR/2001/REC-SVG-20010904/DTD/svg10.dtd">
<svg version="1.0" xmlns="http://www.w3.org/2000/svg"
 width="2000.000000pt" height="2000.000000pt" viewBox="0 0 2000.000000 2000.000000"
 preserveAspectRatio="xMidYMid meet">
<metadata>
Created by potrace 1.14, written by Peter Selinger 2001-2017
</metadata>
<g transform="translate(0.000000,2000.000000) scale(0.100000,-0.100000)"
fill="#000000" stroke="none">
<path d="M2950 19821 c-204 -7 -225 -12 -268 -75 -30 -43 -28 -59 11 -92 68
-57 232 -116 392 -140 55 -8 120 -21 145 -29 25 -8 88 -21 140 -29 102 -16
130 -21 200 -37 25 -6 56 -13 69 -15 13 -3 43 -13 65 -23 80 -35 82 -36 193
-46 40 -3 112 -17 160 -31 48 -14 115 -33 147 -41 33 -9 82 -31 110 -49 74
-50 141 -79 241 -109 50 -15 117 -35 150 -45 33 -11 96 -28 140 -39 44 -11
114 -29 155 -41 72 -20 290 -75 415 -105 198 -48 273 -68 295 -80 14 -7 101
-30 194 -50 93 -21 190 -48 215 -60 56 -28 140 -50 246 -65 44 -5 113 -21 153
-35 71 -24 270 -75 293 -75 6 0 25 -6 42 -14 37 -17 125 -42 182 -51 41 -6 96
-22 220 -61 39 -12 127 -34 195 -48 69 -15 188 -47 265 -71 77 -24 169 -50
205 -59 36 -9 106 -27 155 -41 50 -14 126 -34 170 -44 44 -10 91 -24 105 -30
27 -12 240 -66 305 -77 22 -4 52 -13 66 -20 31 -16 145 -48 244 -70 39 -8 140
-35 225 -59 85 -24 173 -47 195 -50 22 -3 60 -14 85 -22 43 -16 217 -62 520
-137 161 -40 255 -67 315 -89 22 -8 85 -23 140 -32 55 -9 174 -38 265 -66 246
-74 293 -87 510 -134 58 -13 134 -32 170 -43 36 -11 112 -33 170 -47 58 -15
130 -37 160 -50 30 -12 93 -30 140 -39 47 -8 121 -22 165 -30 78 -15 355 -91
445 -122 25 -9 74 -23 110 -31 105 -23 202 -54 245 -78 22 -13 76 -35 120 -50
87 -29 174 -70 245 -116 25 -16 67 -41 94 -56 99 -57 225 -154 317 -245 52
-51 122 -117 154 -146 107 -94 169 -158 198 -207 11 -16 34 -46 51 -65 18 -19
55 -66 82 -103 47 -65 58 -80 121 -172 15 -22 42 -73 60 -114 18 -41 41 -83
51 -95 10 -11 31 -52 47 -90 15 -37 38 -80 50 -95 13 -16 30 -65 44 -131 13
-58 31 -125 41 -150 29 -72 38 -123 60 -325 31 -290 39 -345 56 -405 8 -30 22
-79 30 -108 16 -55 45 -118 76 -163 18 -28 32 -105 43 -244 7 -93 27 -195 60
-315 13 -47 31 -146 39 -220 14 -122 30 -211 57 -325 25 -103 39 -167 55 -255
9 -52 21 -106 26 -119 11 -32 35 -214 43 -331 10 -162 35 -311 65 -400 16 -47
34 -119 40 -160 19 -137 57 -311 74 -338 3 -5 12 -67 21 -138 22 -182 43 -291
66 -338 12 -25 29 -107 44 -211 14 -93 36 -208 49 -255 25 -87 33 -128 62
-310 9 -58 25 -132 35 -165 11 -33 28 -115 39 -183 18 -110 37 -178 83 -297 9
-22 16 -63 17 -90 0 -68 16 -199 40 -320 39 -205 50 -299 50 -413 0 -64 -4
-133 -9 -152 -5 -19 -23 -87 -39 -151 -17 -64 -35 -151 -41 -193 -8 -55 -18
-87 -35 -109 -14 -18 -32 -61 -41 -97 -34 -135 -48 -176 -65 -195 -10 -11 -31
-56 -45 -100 -15 -44 -35 -98 -45 -120 -72 -154 -97 -201 -150 -285 -32 -52
-71 -117 -86 -145 -15 -27 -38 -64 -53 -80 -14 -17 -39 -56 -56 -88 -16 -32
-50 -80 -74 -105 -108 -115 -148 -155 -176 -175 -16 -12 -39 -32 -49 -45 -22
-27 -21 -27 -97 -84 -31 -24 -93 -72 -138 -106 -45 -35 -92 -69 -104 -75 -13
-7 -45 -29 -72 -50 -80 -61 -292 -199 -365 -237 -37 -19 -87 -51 -111 -71 -24
-20 -71 -46 -103 -58 -59 -22 -175 -85 -231 -126 -33 -25 -120 -65 -140 -65
-7 0 -28 -11 -47 -23 -19 -13 -65 -41 -103 -62 -64 -35 -170 -115 -205 -156
-15 -16 -281 -149 -300 -149 -5 0 -29 -16 -54 -35 -25 -19 -76 -48 -113 -65
-37 -17 -77 -39 -88 -49 -11 -10 -45 -31 -75 -46 -30 -15 -125 -69 -210 -120
-85 -51 -175 -103 -200 -115 -25 -12 -75 -42 -112 -66 -37 -24 -113 -67 -170
-97 -102 -53 -234 -135 -260 -160 -7 -7 -43 -25 -80 -40 -37 -14 -95 -44 -130
-65 -35 -22 -75 -43 -89 -47 -13 -4 -53 -29 -89 -56 -36 -27 -71 -49 -79 -49
-7 0 -30 -13 -50 -28 -20 -16 -85 -55 -144 -88 -59 -32 -130 -72 -157 -89
-223 -135 -319 -196 -363 -233 -29 -23 -57 -42 -63 -42 -6 0 -39 -18 -73 -40
-34 -22 -90 -52 -124 -66 -62 -26 -185 -96 -287 -165 -57 -38 -180 -104 -410
-221 -159 -82 -242 -129 -290 -167 -35 -28 -124 -78 -235 -133 -33 -17 -78
-43 -100 -59 -159 -115 -267 -170 -465 -236 -58 -19 -118 -45 -135 -57 -17
-13 -65 -38 -107 -55 -42 -18 -82 -39 -89 -47 -7 -9 -41 -28 -75 -44 -35 -16
-76 -40 -91 -55 -15 -14 -41 -33 -58 -42 -33 -16 -109 -64 -213 -132 -37 -24
-92 -55 -122 -68 -30 -14 -68 -35 -85 -47 -33 -25 -142 -85 -276 -152 -48 -23
-90 -47 -93 -53 -4 -5 -48 -31 -99 -56 -51 -25 -103 -52 -117 -59 -14 -8 -45
-24 -70 -36 -25 -12 -56 -32 -70 -45 -14 -13 -47 -34 -75 -46 -27 -12 -76 -40
-108 -61 -32 -22 -74 -46 -94 -54 -20 -9 -59 -33 -87 -54 -55 -41 -129 -84
-214 -125 -29 -14 -81 -43 -116 -65 -35 -22 -68 -40 -73 -40 -6 0 -33 -15 -60
-34 -26 -18 -78 -48 -113 -65 -36 -18 -76 -43 -90 -55 -14 -13 -47 -33 -73
-45 -27 -11 -70 -36 -95 -55 -26 -18 -70 -41 -99 -50 -28 -9 -75 -34 -105 -55
-29 -21 -68 -43 -86 -49 -18 -6 -54 -25 -79 -42 -25 -17 -66 -42 -93 -55 -26
-13 -60 -35 -76 -48 -16 -13 -54 -35 -84 -47 -30 -13 -76 -38 -101 -56 -25
-18 -57 -38 -71 -43 -14 -5 -59 -30 -99 -55 -40 -25 -77 -46 -82 -46 -5 0 -30
-15 -56 -34 -25 -18 -69 -43 -97 -56 -69 -29 -102 -65 -114 -125 -9 -49 -9
-51 24 -82 24 -22 50 -34 87 -41 36 -7 890 -10 2519 -9 l2465 2 147 27 c80 14
155 31 165 36 10 6 57 20 103 31 47 12 117 36 155 55 39 18 108 46 155 61 47
15 101 37 120 49 19 12 62 32 95 45 33 12 75 34 94 48 19 15 68 43 110 63 42
20 119 66 172 102 53 36 117 73 143 83 26 10 61 31 78 47 17 16 45 36 62 44
45 20 98 53 121 74 11 10 52 35 90 55 39 20 77 43 86 51 9 8 43 25 75 38 33
12 83 39 112 59 29 19 69 41 89 48 50 16 222 119 256 153 14 14 32 26 40 26 8
0 49 22 91 50 42 27 91 56 109 64 18 7 42 25 55 39 14 14 53 34 91 47 41 13
83 35 106 56 21 19 45 34 52 34 18 0 130 57 138 70 4 6 37 25 73 41 37 17 81
41 98 54 18 14 57 35 88 49 31 14 71 36 88 48 38 28 154 92 268 147 47 23 90
47 95 54 6 7 28 24 50 38 22 15 54 39 70 53 17 15 62 42 101 61 39 19 79 44
89 55 10 11 24 20 32 20 25 0 124 50 146 74 12 12 46 31 74 40 35 12 70 34
104 67 28 27 57 49 65 49 8 0 34 19 57 43 62 62 153 130 227 169 36 18 86 48
112 66 25 17 97 57 160 87 149 74 149 74 253 135 99 59 238 136 355 198 41 22
109 62 150 89 41 27 123 73 181 100 59 28 156 85 217 127 61 41 168 105 239
142 70 37 146 82 168 99 22 18 90 58 150 90 61 32 142 77 180 100 39 23 86 50
105 60 18 10 40 24 48 32 8 7 40 30 71 49 31 20 67 48 81 62 14 15 50 47 80
72 87 72 378 361 413 410 17 25 61 76 97 113 36 38 71 81 79 95 7 15 35 50 61
77 27 28 61 71 77 96 41 67 83 125 124 173 20 22 48 61 62 86 14 25 54 79 88
120 34 41 72 96 84 122 12 26 33 62 47 80 14 18 44 70 67 116 23 45 45 82 49
82 8 0 20 25 56 117 13 34 35 77 49 95 14 18 37 65 51 103 15 39 34 81 44 95
19 26 41 79 62 145 7 22 20 51 29 65 19 28 29 59 61 180 12 47 33 117 47 155
14 39 35 113 48 165 13 52 37 136 53 185 17 50 40 151 51 225 12 74 34 207 49
295 26 154 27 174 27 530 0 362 -1 373 -26 495 -15 69 -30 157 -33 195 -11
119 -27 215 -56 345 -15 69 -36 179 -45 245 -9 66 -24 149 -31 185 -29 133
-44 227 -44 281 0 31 -7 76 -16 100 -8 24 -24 105 -34 179 -29 198 -38 247
-65 325 -14 38 -29 106 -35 150 -6 44 -17 129 -26 188 -8 60 -14 152 -13 205
1 64 -4 118 -15 157 -9 33 -25 130 -37 215 -11 85 -29 189 -40 230 -11 41 -31
144 -44 229 -30 183 -38 218 -70 291 -17 41 -29 103 -45 250 -17 148 -30 217
-53 285 -16 50 -45 160 -63 245 -18 85 -42 193 -53 240 -11 47 -29 149 -41
226 -11 78 -27 161 -36 185 -8 24 -26 107 -39 184 -32 191 -45 244 -65 285
-23 47 -36 107 -60 283 -12 82 -29 172 -40 200 -19 54 -35 139 -45 242 -12
121 -47 321 -60 340 -13 21 -35 157 -55 345 -7 60 -22 131 -35 165 -13 33 -33
106 -44 162 -20 100 -41 158 -66 178 -7 6 -24 57 -39 114 -16 63 -36 117 -50
136 -14 18 -37 68 -51 113 -14 44 -36 96 -48 114 -13 18 -38 70 -56 115 -18
45 -41 89 -52 99 -10 9 -19 22 -19 28 0 23 -45 123 -70 156 -15 19 -35 51 -45
70 -10 19 -35 54 -55 78 -21 23 -45 58 -54 77 -9 18 -29 47 -45 63 -16 16 -43
60 -61 98 -17 38 -39 78 -49 89 -11 11 -30 39 -43 62 -27 50 -63 95 -135 169
-29 29 -53 57 -53 62 0 5 -23 33 -51 63 -28 30 -81 88 -118 129 -66 74 -108
117 -172 176 -33 30 -70 71 -139 156 -60 74 -132 140 -210 190 -41 27 -110 81
-152 120 -42 39 -96 82 -120 95 -24 13 -56 37 -73 52 -29 27 -140 104 -211
147 -19 11 -47 32 -62 46 -15 14 -47 38 -72 53 -24 16 -66 45 -93 67 -27 21
-55 38 -62 38 -7 0 -35 15 -61 33 -27 18 -67 41 -89 51 -22 10 -67 31 -100 48
-33 17 -91 41 -129 54 -38 13 -88 35 -112 49 -41 24 -165 74 -384 155 -58 21
-125 47 -150 58 -25 12 -85 28 -134 37 -50 9 -126 30 -170 47 -45 16 -139 40
-211 54 -71 13 -155 31 -185 40 -110 31 -172 44 -253 53 -45 6 -192 24 -327
42 l-245 31 -980 -6 c-1548 -11 -6890 -8 -7365 3 -234 6 -450 10 -480 9 -30
-1 -138 -4 -240 -7z"/>
<path d="M2122 18528 c-18 -6 -41 -24 -52 -43 -39 -64 -43 -144 -35 -820 4
-352 9 -921 11 -1265 9 -1738 15 -3300 20 -4850 3 -943 9 -1886 13 -2095 7
-364 9 -611 16 -2166 1 -384 5 -701 8 -706 3 -5 7 -367 8 -804 0 -437 4 -836
8 -886 6 -87 8 -95 38 -124 l31 -32 399 2 c329 2 1273 17 1308 22 6 0 45 -4
88 -10 60 -8 86 -17 109 -36 17 -14 44 -33 62 -42 35 -18 79 -53 162 -130 87
-81 99 -79 365 55 118 59 223 113 234 119 11 7 45 24 75 38 30 15 64 35 75 44
11 10 44 31 73 47 30 15 63 40 75 54 12 14 42 34 66 43 24 10 71 32 105 50 33
18 81 41 106 50 25 9 76 37 115 62 38 25 79 48 90 51 11 4 38 19 60 34 22 15
63 39 92 54 29 14 68 39 86 56 19 16 38 30 42 30 20 0 134 57 163 82 18 15 39
28 48 28 22 0 106 45 128 68 10 12 49 33 87 47 37 15 78 34 91 44 13 10 52 33
88 50 36 18 79 42 95 55 17 12 53 33 80 46 28 13 66 36 85 51 19 14 69 41 110
59 41 18 82 38 90 45 8 8 47 28 85 45 75 35 156 81 245 140 30 20 118 67 195
104 77 37 154 80 170 96 17 15 55 35 85 45 47 15 112 53 130 75 3 4 38 22 78
40 39 18 77 39 84 47 6 8 44 31 82 50 39 20 84 46 101 58 16 13 47 30 67 38
21 9 59 32 84 51 26 20 54 36 63 36 10 0 21 4 26 8 6 5 30 17 54 26 25 10 57
26 73 37 15 11 60 33 99 49 120 50 231 130 279 201 48 69 49 41 -14 251 -19
64 -46 139 -59 165 -13 26 -34 82 -46 123 -13 41 -28 82 -35 90 -26 31 -54 89
-76 156 -12 38 -33 88 -46 111 -13 23 -38 81 -55 129 -17 48 -44 110 -59 138
-16 28 -36 78 -45 111 -44 155 -170 404 -231 456 -17 15 -24 15 -86 0 -36 -10
-88 -31 -115 -49 -26 -18 -77 -46 -113 -64 -36 -17 -78 -40 -93 -51 -16 -11
-68 -35 -115 -54 -48 -18 -102 -44 -122 -58 -19 -13 -60 -35 -90 -49 -30 -14
-100 -53 -155 -86 -55 -33 -134 -77 -175 -97 -41 -20 -92 -49 -114 -65 -21
-15 -44 -28 -50 -28 -7 0 -36 -16 -66 -36 -30 -20 -95 -56 -145 -80 -116 -58
-259 -136 -277 -150 -7 -7 -50 -30 -95 -52 -103 -51 -253 -131 -273 -147 -8
-6 -53 -28 -100 -49 -47 -21 -92 -45 -101 -53 -12 -10 -35 -13 -75 -11 l-59 3
-8 45 c-4 25 -5 176 -3 335 14 812 17 1256 23 3205 3 1163 5 2169 5 2235 -2
177 -13 529 -17 535 -2 3 -8 73 -14 157 -14 188 -35 306 -59 341 -11 15 -25
45 -32 67 -17 52 -48 115 -70 140 -9 11 -36 53 -59 93 -23 39 -45 72 -49 72
-4 0 -16 17 -27 38 -20 38 -56 81 -135 161 -25 25 -55 60 -68 76 -12 17 -130
140 -261 275 -130 135 -266 277 -300 315 -35 39 -100 108 -145 155 -45 47 -92
101 -104 121 -12 21 -33 44 -47 53 -14 9 -33 33 -44 54 -10 20 -53 69 -95 107
-106 97 -281 272 -341 342 -96 111 -170 186 -207 209 -20 13 -43 36 -50 51 -7
15 -29 38 -48 51 -19 13 -41 35 -48 49 -12 23 -122 135 -322 331 -80 78 -141
143 -193 207 -18 22 -86 95 -152 162 -184 186 -341 354 -373 398 -16 22 -55
67 -86 100 -32 33 -71 79 -87 103 -17 23 -34 42 -39 42 -5 0 -21 17 -35 37
-39 58 -114 132 -152 150 -19 9 -42 28 -51 42 -47 77 -74 90 -140 69z"/>
<path d="M19905 12373 c-4 -10 -11 -99 -16 -198 -10 -185 -5 -362 12 -450 l9
-50 45 3 45 4 0 354 0 354 -44 0 c-32 0 -46 -5 -51 -17z"/>
<path d="M7950 11329 l-485 -5 -90 -28 c-146 -45 -168 -62 -191 -147 -34 -131
-9 -217 99 -330 40 -42 92 -86 117 -99 25 -13 59 -33 75 -46 17 -12 62 -34
100 -48 39 -15 90 -37 115 -50 25 -13 72 -33 105 -46 33 -13 71 -33 85 -46 14
-13 59 -39 101 -58 42 -19 82 -42 88 -50 7 -9 52 -39 100 -67 47 -29 118 -74
158 -100 40 -26 89 -57 110 -68 42 -21 130 -98 207 -181 28 -30 78 -82 111
-116 73 -75 135 -151 135 -167 0 -7 18 -34 40 -62 22 -27 40 -53 40 -57 0 -4
17 -33 38 -64 49 -74 56 -89 77 -154 9 -30 28 -73 43 -95 15 -24 31 -69 38
-113 7 -40 30 -110 49 -155 20 -45 47 -122 60 -171 13 -49 37 -117 53 -150 17
-34 39 -101 51 -151 11 -49 34 -117 51 -150 17 -34 39 -105 51 -165 12 -58 30
-127 41 -155 11 -27 35 -96 54 -152 19 -56 43 -117 54 -135 10 -18 31 -80 45
-138 15 -57 37 -125 50 -150 12 -25 32 -79 43 -120 11 -41 37 -106 56 -143 20
-38 36 -75 36 -82 0 -22 29 -104 60 -170 16 -33 40 -86 54 -118 30 -68 107
-161 147 -177 37 -16 113 -5 158 21 61 36 122 92 142 130 10 21 30 55 44 75
14 21 35 69 46 108 11 39 31 94 44 121 13 28 35 100 50 160 15 61 38 134 51
163 14 29 38 103 54 165 15 62 37 128 48 147 11 19 34 78 50 130 16 52 41 118
56 145 14 28 36 95 47 150 12 56 34 122 50 150 15 28 37 84 49 125 12 41 37
107 56 145 19 39 43 109 52 157 10 48 25 95 35 105 22 25 42 75 62 158 9 39
28 88 42 109 14 21 38 77 54 124 16 47 35 92 42 101 7 9 28 50 47 91 19 41 42
84 51 95 9 11 31 48 48 83 17 34 47 83 66 108 19 25 42 60 50 78 9 18 26 38
38 45 12 7 35 31 51 55 16 24 42 51 57 62 16 10 29 22 29 25 0 15 126 133 170
160 28 17 56 38 63 47 6 10 28 25 48 35 20 10 52 33 70 51 19 17 57 42 84 55
28 13 66 35 85 50 19 14 61 38 93 53 32 15 72 38 90 51 18 13 52 32 77 41 24
10 63 30 86 46 23 15 71 42 106 59 36 17 82 44 104 62 21 17 59 42 84 55 93
51 148 97 167 142 7 17 18 32 24 32 5 0 20 21 32 48 16 37 21 66 21 137 0 114
-13 136 -106 180 -56 27 -86 34 -161 40 -115 8 -4317 12 -4977 4z"/>
</g>
</svg>
